<?xml version="1.0" standalone="no"?>
<!DOCTYPE svg PUBLIC "-//W3C//DTD SVG 20010904//EN"
 "http://www.w3.org/TR/2001/REC-SVG-20010904/DTD/svg10.dtd">
<svg version="1.0" xmlns="http://www.w3.org/2000/svg"
 width="1080.000000pt" height="1350.000000pt" viewBox="0 0 1080.000000 1350.000000"
 preserveAspectRatio="xMidYMid meet">

<g transform="translate(0.000000,1350.000000) scale(0.100000,-0.100000)"
fill="#000000" stroke="none">
<path d="M5367 9680 c-113 -29 -169 -91 -175 -198 -4 -51 -11 -77 -35 -115
-30 -48 -30 -50 -11 -64 15 -11 19 -26 19 -81 l0 -67 65 -7 c80 -9 100 -28
100 -97 0 -103 -51 -183 -163 -255 -67 -44 -122 -101 -142 -148 -19 -46 -19
-130 0 -183 23 -62 37 -202 30 -285 -7 -78 -25 -165 -69 -334 -33 -124 -51
-299 -42 -389 l8 -68 56 79 c114 159 294 375 374 450 l25 22 54 -57 c30 -32
101 -115 158 -185 57 -71 105 -128 107 -128 3 0 2 17 -1 38 -16 94 -54 191
-147 371 -92 177 -101 199 -105 260 -4 54 0 79 22 139 15 41 40 96 56 123 16
28 29 54 29 60 0 6 5 7 10 4 6 -3 10 -18 10 -32 0 -28 18 -96 62 -233 31 -97
85 -213 133 -290 48 -76 125 -243 150 -326 21 -68 32 -87 70 -122 25 -23 51
-42 58 -42 7 0 30 18 51 39 l38 39 -48 43 c-60 56 -97 136 -130 282 -35 156
-60 236 -105 338 -29 67 -44 122 -62 229 -13 77 -23 140 -23 140 1 0 29 -27
64 -59 68 -65 113 -81 189 -66 l38 8 -47 16 c-56 19 -94 53 -108 95 -5 17 -14
76 -19 129 -7 69 -16 109 -31 134 -11 19 -19 38 -16 40 10 11 86 -71 96 -105
21 -68 22 -69 36 -27 37 118 -4 219 -135 328 -82 70 -93 94 -102 231 -11 177
-43 248 -136 303 -39 23 -60 27 -132 30 -47 1 -103 -2 -124 -7z"/>
<path d="M7080 7879 c0 -5 5 -7 10 -4 6 3 10 8 10 11 0 2 -4 4 -10 4 -5 0 -10
-5 -10 -11z"/>
<path d="M6965 7870 c-3 -6 1 -7 9 -4 18 7 21 14 7 14 -6 0 -13 -4 -16 -10z"/>
<path d="M6760 7841 c0 -6 5 -13 10 -16 6 -3 10 1 10 9 0 9 -4 16 -10 16 -5 0
-10 -4 -10 -9z"/>
<path d="M3662 7815 c0 -16 2 -22 5 -12 2 9 2 23 0 30 -3 6 -5 -1 -5 -18z"/>
<path d="M6710 7831 c0 -6 4 -13 10 -16 6 -3 7 1 4 9 -7 18 -14 21 -14 7z"/>
<path d="M3700 7819 c0 -5 5 -7 10 -4 6 3 10 8 10 11 0 2 -4 4 -10 4 -5 0 -10
-5 -10 -11z"/>
<path d="M6838 7823 c7 -3 16 -2 19 1 4 3 -2 6 -13 5 -11 0 -14 -3 -6 -6z"/>
<path d="M3948 7813 c7 -3 16 -2 19 1 4 3 -2 6 -13 5 -11 0 -14 -3 -6 -6z"/>
<path d="M4100 7780 c0 -5 5 -10 10 -10 6 0 10 5 10 10 0 6 -4 10 -10 10 -5 0
-10 -4 -10 -10z"/>
<path d="M5385 7770 c-10 -11 -14 -20 -9 -20 12 1 44 25 44 34 0 12 -17 6 -35
-14z"/>
<path d="M3755 7750 c-3 -5 -1 -10 4 -10 6 0 11 5 11 10 0 6 -2 10 -4 10 -3 0
-8 -4 -11 -10z"/>
<path d="M5420 7749 c0 -5 5 -7 10 -4 6 3 10 8 10 11 0 2 -4 4 -10 4 -5 0 -10
-5 -10 -11z"/>
<path d="M3664 7635 c0 -60 1 -84 3 -52 2 32 2 81 0 110 -2 29 -3 3 -3 -58z"/>
<path d="M4110 7730 c8 -5 20 -10 25 -10 6 0 3 5 -5 10 -8 5 -19 10 -25 10 -5
0 -3 -5 5 -10z"/>
<path d="M5450 7725 c7 -9 15 -13 17 -11 7 7 -7 26 -19 26 -6 0 -6 -6 2 -15z"/>
<path d="M5330 7709 c0 -5 5 -7 10 -4 6 3 10 8 10 11 0 2 -4 4 -10 4 -5 0 -10
-5 -10 -11z"/>
<path d="M5487 7681 c3 -12 9 -21 14 -21 14 0 11 16 -5 29 -12 10 -13 8 -9 -8z"/>
<path d="M3761 7674 c0 -11 3 -14 6 -6 3 7 2 16 -1 19 -3 4 -6 -2 -5 -13z"/>
<path d="M7143 7645 c0 -27 2 -38 4 -22 2 15 2 37 0 50 -2 12 -4 0 -4 -28z"/>
<path d="M5356 7665 c-3 -8 -1 -15 4 -15 6 0 10 7 10 15 0 8 -2 15 -4 15 -2 0
-6 -7 -10 -15z"/>
<path d="M6480 7645 c0 -9 6 -12 15 -9 8 4 15 7 15 9 0 2 -7 5 -15 9 -9 3 -15
0 -15 -9z"/>
<path d="M4300 7640 c0 -5 5 -10 11 -10 5 0 7 5 4 10 -3 6 -8 10 -11 10 -2 0
-4 -4 -4 -10z"/>
<path d="M6529 7633 c-13 -16 -12 -17 4 -4 9 7 17 15 17 17 0 8 -8 3 -21 -13z"/>
<path d="M7121 7634 c0 -11 3 -14 6 -6 3 7 2 16 -1 19 -3 4 -6 -2 -5 -13z"/>
<path d="M4286 7616 c10 -8 21 -12 24 -10 5 6 -21 24 -34 24 -6 0 -1 -6 10
-14z"/>
<path d="M7045 7620 c-3 -5 -1 -10 4 -10 6 0 11 5 11 10 0 6 -2 10 -4 10 -3 0
-8 -4 -11 -10z"/>
<path d="M7090 7620 c0 -5 5 -10 10 -10 6 0 10 5 10 10 0 6 -4 10 -10 10 -5 0
-10 -4 -10 -10z"/>
<path d="M5230 7600 c0 -5 -7 -10 -15 -10 -8 0 -15 -5 -15 -11 0 -5 5 -7 11
-3 6 3 15 1 19 -6 5 -7 8 -2 8 14 0 14 -2 26 -4 26 -2 0 -4 -4 -4 -10z"/>
<path d="M5330 7600 c0 -5 5 -10 10 -10 6 0 10 5 10 10 0 6 -4 10 -10 10 -5 0
-10 -4 -10 -10z"/>
<path d="M5450 7600 c0 -5 5 -10 10 -10 6 0 10 5 10 10 0 6 -4 10 -10 10 -5 0
-10 -4 -10 -10z"/>
<path d="M5570 7588 c0 -7 4 -18 8 -24 10 -15 42 -25 42 -14 0 6 -7 10 -15 10
-8 0 -15 6 -15 14 0 8 -4 18 -10 21 -5 3 -10 0 -10 -7z"/>
<path d="M6335 7591 c-6 -11 13 -26 22 -17 4 3 1 6 -6 6 -7 0 -9 5 -6 10 3 6
4 10 1 10 -3 0 -7 -4 -11 -9z"/>
<path d="M7041 7584 c0 -11 3 -14 6 -6 3 7 2 16 -1 19 -3 4 -6 -2 -5 -13z"/>
<path d="M4391 7574 c0 -11 3 -14 6 -6 3 7 2 16 -1 19 -3 4 -6 -2 -5 -13z"/>
<path d="M4410 7580 c0 -5 5 -10 10 -10 6 0 10 5 10 10 0 6 -4 10 -10 10 -5 0
-10 -4 -10 -10z"/>
<path d="M5517 7572 c3 -7 9 -10 12 -5 3 4 10 11 15 15 4 4 -1 6 -12 5 -12 -1
-18 -6 -15 -15z"/>
<path d="M6377 7579 c7 -7 15 -10 18 -7 3 3 -2 9 -12 12 -14 6 -15 5 -6 -5z"/>
<path d="M6440 7569 c0 -5 5 -7 10 -4 6 3 10 8 10 11 0 2 -4 4 -10 4 -5 0 -10
-5 -10 -11z"/>
<path d="M5255 7550 c3 -5 8 -10 11 -10 2 0 4 5 4 10 0 6 -5 10 -11 10 -5 0
-7 -4 -4 -10z"/>
<path d="M5516 7525 c4 -8 12 -15 20 -15 20 0 17 7 -6 20 -16 9 -18 8 -14 -5z"/>
<path d="M6320 7520 c0 -6 7 -10 15 -10 8 0 15 2 15 4 0 2 -7 6 -15 10 -8 3
-15 1 -15 -4z"/>
<path d="M6365 7520 c-3 -5 -1 -10 4 -10 6 0 11 5 11 10 0 6 -2 10 -4 10 -3 0
-8 -4 -11 -10z"/>
<path d="M5581 7504 c0 -11 3 -14 6 -6 3 7 2 16 -1 19 -3 4 -6 -2 -5 -13z"/>
<path d="M3681 7507 c2 -1 12 -9 22 -16 14 -12 17 -11 17 3 0 10 -8 16 -22 16
-12 0 -19 -1 -17 -3z"/>
<path d="M5201 7501 c-8 -5 -9 -11 -3 -15 5 -3 12 1 16 9 6 17 6 18 -13 6z"/>
<path d="M5245 7500 c-3 -5 -1 -10 4 -10 6 0 11 5 11 10 0 6 -2 10 -4 10 -3 0
-8 -4 -11 -10z"/>
<path d="M4450 7486 c0 -2 8 -10 18 -17 15 -13 16 -12 3 4 -13 16 -21 21 -21
13z"/>
<path d="M4543 7464 c-17 -18 -16 -27 1 -21 8 3 17 1 20 -6 2 -7 5 -2 5 10 1
27 -10 35 -26 17z"/>
<path d="M5168 7453 c6 -2 18 -2 25 0 6 3 1 5 -13 5 -14 0 -19 -2 -12 -5z"/>
<path d="M6295 7450 c-3 -5 -1 -10 4 -10 6 0 11 5 11 10 0 6 -2 10 -4 10 -3 0
-8 -4 -11 -10z"/>
<path d="M3761 7434 c0 -11 3 -14 6 -6 3 7 2 16 -1 19 -3 4 -6 -2 -5 -13z"/>
<path d="M6220 7435 c-11 -13 -10 -14 4 -9 9 3 16 10 16 15 0 13 -6 11 -20 -6z"/>
<path d="M5127 7415 c3 -8 9 -12 14 -9 12 7 11 11 -5 17 -10 4 -13 1 -9 -8z"/>
<path d="M2998 7413 c7 -3 16 -2 19 1 4 3 -2 6 -13 5 -11 0 -14 -3 -6 -6z"/>
<path d="M3671 7404 c0 -11 3 -14 6 -6 3 7 2 16 -1 19 -3 4 -6 -2 -5 -13z"/>
<path d="M7735 7410 c3 -5 8 -10 11 -10 2 0 4 5 4 10 0 6 -5 10 -11 10 -5 0
-7 -4 -4 -10z"/>
<path d="M4520 7406 c0 -2 7 -9 15 -16 9 -7 15 -8 15 -2 0 5 -7 12 -15 16 -8
3 -15 4 -15 2z"/>
<path d="M5667 7403 c-12 -12 -7 -22 8 -17 8 4 15 10 15 15 0 11 -14 12 -23 2z"/>
<path d="M2828 7393 c7 -3 16 -2 19 1 4 3 -2 6 -13 5 -11 0 -14 -3 -6 -6z"/>
<path d="M2918 7383 c7 -3 16 -2 19 1 4 3 -2 6 -13 5 -11 0 -14 -3 -6 -6z"/>
<path d="M5108 7383 c7 -3 16 -2 19 1 4 3 -2 6 -13 5 -11 0 -14 -3 -6 -6z"/>
<path d="M5700 7380 c0 -5 4 -10 9 -10 6 0 13 5 16 10 3 6 -1 10 -9 10 -9 0
-16 -4 -16 -10z"/>
<path d="M7091 7374 c0 -11 3 -14 6 -6 3 7 2 16 -1 19 -3 4 -6 -2 -5 -13z"/>
<path d="M7720 7359 c0 -5 5 -7 10 -4 6 3 10 8 10 11 0 2 -4 4 -10 4 -5 0 -10
-5 -10 -11z"/>
<path d="M7810 7360 c0 -5 5 -10 10 -10 6 0 10 5 10 10 0 6 -4 10 -10 10 -5 0
-10 -4 -10 -10z"/>
<path d="M2908 7353 c6 -2 18 -2 25 0 6 3 1 5 -13 5 -14 0 -19 -2 -12 -5z"/>
<path d="M2951 7344 c0 -11 3 -14 6 -6 3 7 2 16 -1 19 -3 4 -6 -2 -5 -13z"/>
<path d="M5685 7350 c3 -5 8 -10 11 -10 2 0 4 5 4 10 0 6 -5 10 -11 10 -5 0
-7 -4 -4 -10z"/>
<path d="M5716 7351 c-4 -5 3 -7 14 -4 23 6 26 13 6 13 -8 0 -17 -4 -20 -9z"/>
<path d="M7455 7340 c-3 -5 -1 -10 4 -10 6 0 11 5 11 10 0 6 -2 10 -4 10 -3 0
-8 -4 -11 -10z"/>
<path d="M2918 7323 c7 -3 16 -2 19 1 4 3 -2 6 -13 5 -11 0 -14 -3 -6 -6z"/>
<path d="M7311 7274 c0 -11 3 -14 6 -6 3 7 2 16 -1 19 -3 4 -6 -2 -5 -13z"/>
<path d="M7385 7281 c-3 -5 -1 -12 5 -16 5 -3 10 1 10 9 0 18 -6 21 -15 7z"/>
<path d="M7865 7280 c-3 -5 -2 -10 4 -10 5 0 13 5 16 10 3 6 2 10 -4 10 -5 0
-13 -4 -16 -10z"/>
<path d="M2896 7265 c4 -8 11 -15 16 -15 6 0 5 6 -2 15 -7 8 -14 15 -16 15 -2
0 -1 -7 2 -15z"/>
<path d="M6077 7243 c-4 -3 -7 -11 -7 -17 0 -6 5 -5 12 2 6 6 9 14 7 17 -3 3
-9 2 -12 -2z"/>
<path d="M5018 7233 c7 -3 16 -2 19 1 4 3 -2 6 -13 5 -11 0 -14 -3 -6 -6z"/>
<path d="M5806 7217 c3 -10 9 -15 12 -12 3 3 0 11 -7 18 -10 9 -11 8 -5 -6z"/>
<path d="M7815 7204 c-11 -17 -12 -25 -4 -22 6 2 16 14 20 26 11 29 5 28 -16
-4z"/>
<path d="M5770 7211 c0 -5 5 -13 10 -16 6 -3 10 -2 10 4 0 5 -4 13 -10 16 -5
3 -10 2 -10 -4z"/>
<path d="M3721 7194 c0 -11 3 -14 6 -6 3 7 2 16 -1 19 -3 4 -6 -2 -5 -13z"/>
<path d="M3780 7196 c0 -9 5 -16 10 -16 6 0 10 4 10 9 0 6 -4 13 -10 16 -5 3
-10 -1 -10 -9z"/>
<path d="M4685 7200 c3 -5 8 -10 11 -10 2 0 4 5 4 10 0 6 -5 10 -11 10 -5 0
-7 -4 -4 -10z"/>
<path d="M4755 7200 c-3 -5 -1 -10 4 -10 6 0 11 5 11 10 0 6 -2 10 -4 10 -3 0
-8 -4 -11 -10z"/>
<path d="M4991 7194 c0 -11 3 -14 6 -6 3 7 2 16 -1 19 -3 4 -6 -2 -5 -13z"/>
<path d="M6061 7193 c-1 -17 16 -25 25 -12 4 7 3 9 -4 5 -5 -3 -13 0 -15 6 -4
9 -6 10 -6 1z"/>
<path d="M7279 7183 c-13 -17 -13 -17 6 -3 11 8 22 16 24 17 2 2 0 3 -6 3 -6
0 -17 -8 -24 -17z"/>
<path d="M2972 7170 c0 -14 2 -19 5 -12 2 6 2 18 0 25 -3 6 -5 1 -5 -13z"/>
<path d="M3528 7183 c6 -2 18 -2 25 0 6 3 1 5 -13 5 -14 0 -19 -2 -12 -5z"/>
<path d="M4802 7150 c0 -14 2 -19 5 -12 2 6 2 18 0 25 -3 6 -5 1 -5 -13z"/>
<path d="M7010 7160 c0 -5 5 -10 10 -10 6 0 10 5 10 10 0 6 -4 10 -10 10 -5 0
-10 -4 -10 -10z"/>
<path d="M7831 7153 c-7 -8 -10 -17 -6 -21 4 -4 10 -2 12 4 2 7 12 10 22 7 10
-3 22 1 26 9 5 7 5 10 0 6 -4 -4 -15 -3 -24 1 -10 6 -21 4 -30 -6z"/>
<path d="M3000 7145 c-7 -9 -8 -15 -2 -15 5 0 12 7 16 15 3 8 4 15 2 15 -2 0
-9 -7 -16 -15z"/>
<path d="M7780 7139 c0 -5 5 -7 10 -4 6 3 10 8 10 11 0 2 -4 4 -10 4 -5 0 -10
-5 -10 -11z"/>
<path d="M4743 7122 c-8 -5 -8 -12 3 -26 8 -11 14 -15 14 -9 0 6 3 18 6 27 7
17 -3 21 -23 8z"/>
<path d="M4986 7094 c-9 -20 -15 -39 -12 -41 2 -3 12 12 21 32 10 19 16 38 13
40 -2 3 -12 -12 -22 -31z"/>
<path d="M2961 7084 c0 -11 3 -14 6 -6 3 7 2 16 -1 19 -3 4 -6 -2 -5 -13z"/>
<path d="M3020 7064 c0 -8 5 -12 10 -9 6 3 10 10 10 16 0 5 -4 9 -10 9 -5 0
-10 -7 -10 -16z"/>
<path d="M6995 7070 c-3 -5 -1 -10 4 -10 6 0 11 5 11 10 0 6 -2 10 -4 10 -3 0
-8 -4 -11 -10z"/>
<path d="M5820 7067 c0 -12 32 -88 36 -85 4 5 -20 76 -29 84 -4 4 -7 4 -7 1z"/>
<path d="M2986 7025 c-3 -8 -1 -15 4 -15 6 0 10 7 10 15 0 8 -2 15 -4 15 -2 0
-6 -7 -10 -15z"/>
<path d="M3821 7035 c1 -19 18 -51 18 -35 0 8 -4 22 -9 30 -5 8 -9 11 -9 5z"/>
<path d="M6977 6983 c-4 -3 -7 -11 -7 -17 0 -6 5 -5 12 2 6 6 9 14 7 17 -3 3
-9 2 -12 -2z"/>
<path d="M4900 6970 c0 -5 5 -10 11 -10 5 0 7 5 4 10 -3 6 -8 10 -11 10 -2 0
-4 -4 -4 -10z"/>
<path d="M4867 6939 c7 -7 15 -10 18 -7 3 3 -2 9 -12 12 -14 6 -15 5 -6 -5z"/>
<path d="M7750 6939 c0 -5 5 -7 10 -4 6 3 10 8 10 11 0 2 -4 4 -10 4 -5 0 -10
-5 -10 -11z"/>
<path d="M3851 6914 c0 -11 3 -14 6 -6 3 7 2 16 -1 19 -3 4 -6 -2 -5 -13z"/>
<path d="M5906 6864 c-4 -15 -3 -30 1 -35 4 -4 9 8 10 27 2 41 -2 44 -11 8z"/>
<path d="M4885 6870 c-3 -5 1 -10 10 -10 9 0 13 5 10 10 -3 6 -8 10 -10 10 -2
0 -7 -4 -10 -10z"/>
<path d="M5957 6862 c1 -8 3 -16 3 -18 0 -2 5 -4 10 -4 6 0 10 7 10 16 0 8 -4
13 -9 10 -5 -4 -11 -3 -14 1 -2 5 -2 2 0 -5z"/>
<path d="M6960 6849 c0 -5 5 -7 10 -4 6 3 10 8 10 11 0 2 -4 4 -10 4 -5 0 -10
-5 -10 -11z"/>
<path d="M7015 6839 c-4 -6 -5 -12 -2 -15 2 -3 7 2 10 11 7 17 1 20 -8 4z"/>
<path d="M6986 6814 c-4 -14 -5 -29 -2 -31 3 -3 8 7 12 21 3 15 4 29 1 32 -2
3 -8 -7 -11 -22z"/>
<path d="M3840 6780 c8 -5 20 -10 25 -10 6 0 3 5 -5 10 -8 5 -19 10 -25 10 -5
0 -3 -5 5 -10z"/>
<path d="M3900 6774 c0 -8 5 -12 10 -9 6 4 8 11 5 16 -9 14 -15 11 -15 -7z"/>
<path d="M6891 6783 c0 -6 -4 -20 -7 -30 -5 -15 -4 -15 5 -3 8 11 11 12 11 2
0 -7 5 -10 10 -7 6 3 10 11 10 16 0 6 -4 8 -9 4 -5 -3 -12 3 -14 12 -3 10 -5
13 -6 6z"/>
<path d="M4881 6764 c0 -11 3 -14 6 -6 3 7 2 16 -1 19 -3 4 -6 -2 -5 -13z"/>
<path d="M6950 6770 c0 -5 5 -10 10 -10 6 0 10 5 10 10 0 6 -4 10 -10 10 -5 0
-10 -4 -10 -10z"/>
<path d="M3917 6753 c-9 -9 -9 -41 1 -46 4 -3 7 8 8 24 1 31 1 32 -9 22z"/>
<path d="M3876 6737 c3 -10 9 -15 12 -12 3 3 0 11 -7 18 -10 9 -11 8 -5 -6z"/>
<path d="M7595 6739 c-4 -6 -5 -12 -2 -15 2 -3 7 2 10 11 7 17 1 20 -8 4z"/>
<path d="M6946 6725 c-9 -26 -7 -32 5 -12 6 10 9 21 6 23 -2 3 -7 -2 -11 -11z"/>
<path d="M6921 6714 c0 -11 3 -14 6 -6 3 7 2 16 -1 19 -3 4 -6 -2 -5 -13z"/>
<path d="M3220 6694 c0 -8 5 -12 10 -9 6 4 8 11 5 16 -9 14 -15 11 -15 -7z"/>
<path d="M7635 6700 c-3 -6 1 -7 9 -4 18 7 21 14 7 14 -6 0 -13 -4 -16 -10z"/>
<path d="M5961 6664 c0 -11 3 -14 6 -6 3 7 2 16 -1 19 -3 4 -6 -2 -5 -13z"/>
<path d="M6892 6655 c0 -16 2 -22 5 -12 2 9 2 23 0 30 -3 6 -5 -1 -5 -18z"/>
<path d="M7651 6664 c0 -11 3 -14 6 -6 3 7 2 16 -1 19 -3 4 -6 -2 -5 -13z"/>
<path d="M3170 6630 c0 -5 5 -10 11 -10 5 0 7 5 4 10 -3 6 -8 10 -11 10 -2 0
-4 -4 -4 -10z"/>
<path d="M6012 6560 c0 -19 2 -27 5 -17 2 9 2 25 0 35 -3 9 -5 1 -5 -18z"/>
<path d="M6830 6580 c0 -5 7 -10 15 -10 8 0 15 5 15 10 0 6 -7 10 -15 10 -8 0
-15 -4 -15 -10z"/>
<path d="M7570 6570 c0 -5 5 -10 10 -10 6 0 10 5 10 10 0 6 -4 10 -10 10 -5 0
-10 -4 -10 -10z"/>
<path d="M4051 6524 c0 -11 3 -14 6 -6 3 7 2 16 -1 19 -3 4 -6 -2 -5 -13z"/>
<path d="M6750 6525 c-19 -23 -9 -25 25 -4 26 17 27 19 9 19 -12 0 -27 -7 -34
-15z"/>
<path d="M6820 6525 c-7 -9 -11 -18 -8 -20 3 -3 11 1 18 10 7 9 11 18 8 20 -3
3 -11 -1 -18 -10z"/>
<path d="M6855 6529 c-4 -6 -5 -12 -2 -15 2 -3 7 2 10 11 7 17 1 20 -8 4z"/>
<path d="M6774 6499 c-3 -6 -2 -15 4 -21 6 -6 11 -2 15 11 5 22 -7 29 -19 10z"/>
<path d="M6716 6473 c-6 -14 -5 -15 5 -6 7 7 10 15 7 18 -3 3 -9 -2 -12 -12z"/>
<path d="M7409 6463 c-13 -16 -12 -17 4 -4 9 7 17 15 17 17 0 8 -8 3 -21 -13z"/>
<path d="M7519 6453 c-13 -16 -12 -17 4 -4 9 7 17 15 17 17 0 8 -8 3 -21 -13z"/>
<path d="M6790 6439 c0 -5 5 -7 10 -4 6 3 10 8 10 11 0 2 -4 4 -10 4 -5 0 -10
-5 -10 -11z"/>
<path d="M6717 6420 c-3 -12 -3 -19 0 -16 3 3 14 1 23 -4 13 -7 22 -5 31 7 12
14 11 15 -8 9 -15 -5 -24 -2 -31 10 -8 14 -10 14 -15 -6z"/>
<path d="M3365 6380 c3 -5 8 -10 11 -10 2 0 4 5 4 10 0 6 -5 10 -11 10 -5 0
-7 -4 -4 -10z"/>
<path d="M4155 6380 c-3 -5 -1 -10 4 -10 6 0 11 5 11 10 0 6 -2 10 -4 10 -3 0
-8 -4 -11 -10z"/>
<path d="M7345 6370 c-3 -5 -1 -10 4 -10 6 0 11 5 11 10 0 6 -2 10 -4 10 -3 0
-8 -4 -11 -10z"/>
<path d="M4095 6350 c3 -5 8 -10 11 -10 2 0 4 5 4 10 0 6 -5 10 -11 10 -5 0
-7 -4 -4 -10z"/>
<path d="M6648 6353 c7 -3 16 -2 19 1 4 3 -2 6 -13 5 -11 0 -14 -3 -6 -6z"/>
<path d="M7390 6345 c-10 -12 -10 -15 4 -15 9 0 16 7 16 15 0 8 -2 15 -4 15
-2 0 -9 -7 -16 -15z"/>
<path d="M4215 6330 c3 -5 8 -10 11 -10 2 0 4 5 4 10 0 6 -5 10 -11 10 -5 0
-7 -4 -4 -10z"/>
<path d="M6680 6330 c0 -5 5 -10 10 -10 6 0 10 5 10 10 0 6 -4 10 -10 10 -5 0
-10 -4 -10 -10z"/>
<path d="M4156 6301 c-4 -5 3 -7 14 -4 23 6 26 13 6 13 -8 0 -17 -4 -20 -9z"/>
<path d="M6588 6303 c7 -3 16 -2 19 1 4 3 -2 6 -13 5 -11 0 -14 -3 -6 -6z"/>
<path d="M5852 6275 c-17 -37 -14 -45 4 -12 9 16 14 31 11 33 -2 2 -9 -7 -15
-21z"/>
<path d="M6645 6290 c-3 -6 1 -7 9 -4 18 7 21 14 7 14 -6 0 -13 -4 -16 -10z"/>
<path d="M7280 6282 c0 -7 -7 -12 -15 -12 -8 0 -15 -7 -15 -15 0 -13 4 -12 22
5 12 11 18 23 15 27 -4 3 -7 1 -7 -5z"/>
<path d="M3630 6260 c0 -5 5 -10 11 -10 5 0 7 5 4 10 -3 6 -8 10 -11 10 -2 0
-4 -4 -4 -10z"/>
<path d="M6550 6255 c-17 -21 -5 -31 15 -12 8 9 15 18 15 21 0 11 -18 6 -30
-9z"/>
<path d="M4330 6220 c-8 -5 -10 -10 -5 -10 6 0 17 5 25 10 8 5 11 10 5 10 -5
0 -17 -5 -25 -10z"/>
<path d="M4940 6220 c-9 -6 -10 -10 -3 -10 6 0 15 5 18 10 8 12 4 12 -15 0z"/>
<path d="M6459 6221 c8 -5 12 -19 9 -35 -3 -14 -2 -26 2 -26 4 0 10 11 12 24
5 25 -7 46 -26 46 -6 0 -5 -4 3 -9z"/>
<path d="M3610 6201 c0 -6 5 -13 10 -16 6 -3 10 1 10 9 0 9 -4 16 -10 16 -5 0
-10 -4 -10 -9z"/>
<path d="M4360 6206 c0 -2 7 -7 16 -10 8 -3 12 -2 9 4 -6 10 -25 14 -25 6z"/>
<path d="M6417 6194 c-15 -8 -25 -19 -22 -24 7 -11 55 17 55 31 0 11 1 11 -33
-7z"/>
<path d="M6368 6133 c7 -3 16 -2 19 1 4 3 -2 6 -13 5 -11 0 -14 -3 -6 -6z"/>
<path d="M6957 6129 c7 -7 15 -10 18 -7 3 3 -2 9 -12 12 -14 6 -15 5 -6 -5z"/>
<path d="M6400 6119 c0 -5 5 -7 10 -4 6 3 10 8 10 11 0 2 -4 4 -10 4 -5 0 -10
-5 -10 -11z"/>
<path d="M6360 6100 c-9 -6 -10 -10 -3 -10 6 0 15 5 18 10 8 12 4 12 -15 0z"/>
<path d="M5070 6096 c0 -2 7 -7 16 -10 8 -3 12 -2 9 4 -6 10 -25 14 -25 6z"/>
<path d="M5664 6055 c-19 -15 -19 -15 1 -8 18 6 18 5 6 -10 -19 -24 2 -21 24
3 18 20 18 21 0 14 -13 -5 -16 -4 -11 4 10 16 4 15 -20 -3z"/>
<path d="M6848 6063 c6 -2 18 -2 25 0 6 3 1 5 -13 5 -14 0 -19 -2 -12 -5z"/>
<path d="M3898 6043 c7 -3 16 -2 19 1 4 3 -2 6 -13 5 -11 0 -14 -3 -6 -6z"/>
<path d="M6115 6040 c-18 -8 -17 -9 7 -9 15 -1 30 4 33 9 7 12 -12 12 -40 0z"/>
<path d="M6556 6042 c-3 -5 8 -6 25 -4 16 2 29 6 29 8 0 8 -49 4 -54 -4z"/>
<path d="M6925 6040 c3 -5 8 -10 11 -10 2 0 4 5 4 10 0 6 -5 10 -11 10 -5 0
-7 -4 -4 -10z"/>
<path d="M4090 6030 c8 -5 20 -10 25 -10 6 0 3 5 -5 10 -8 5 -19 10 -25 10 -5
0 -3 -5 5 -10z"/>
<path d="M5860 5980 c0 -7 14 -8 38 -4 51 9 53 14 4 14 -23 0 -42 -5 -42 -10z"/>
<path d="M7037 5949 c7 -7 15 -10 18 -7 3 3 -2 9 -12 12 -14 6 -15 5 -6 -5z"/>
<path d="M5598 5913 c7 -3 16 -2 19 1 4 3 -2 6 -13 5 -11 0 -14 -3 -6 -6z"/>
<path d="M5048 5893 c6 -2 18 -2 25 0 6 3 1 5 -13 5 -14 0 -19 -2 -12 -5z"/>
<path d="M5778 5893 c7 -3 16 -2 19 1 4 3 -2 6 -13 5 -11 0 -14 -3 -6 -6z"/>
<path d="M6010 5896 c0 -2 7 -9 15 -16 13 -11 14 -10 9 4 -5 14 -24 23 -24 12z"/>
<path d="M6460 5896 c0 -2 7 -7 16 -10 8 -3 12 -2 9 4 -6 10 -25 14 -25 6z"/>
<path d="M4468 5883 c7 -3 16 -2 19 1 4 3 -2 6 -13 5 -11 0 -14 -3 -6 -6z"/>
<path d="M6233 5883 c9 -2 25 -2 35 0 9 3 1 5 -18 5 -19 0 -27 -2 -17 -5z"/>
<path d="M5198 5873 c7 -3 16 -2 19 1 4 3 -2 6 -13 5 -11 0 -14 -3 -6 -6z"/>
<path d="M6608 5833 c7 -3 16 -2 19 1 4 3 -2 6 -13 5 -11 0 -14 -3 -6 -6z"/>
<path d="M6051 5747 c2 -1 13 -9 24 -17 19 -14 19 -14 6 3 -7 9 -18 17 -24 17
-6 0 -8 -1 -6 -3z"/>
<path d="M6005 5700 c-3 -5 -1 -10 4 -10 6 0 11 5 11 10 0 6 -2 10 -4 10 -3 0
-8 -4 -11 -10z"/>
<path d="M6207 5699 c7 -7 15 -10 18 -7 3 3 -2 9 -12 12 -14 6 -15 5 -6 -5z"/>
<path d="M6130 5690 c0 -5 5 -10 11 -10 5 0 7 5 4 10 -3 6 -8 10 -11 10 -2 0
-4 -4 -4 -10z"/>
<path d="M6260 5676 c0 -2 7 -9 15 -16 12 -10 15 -10 15 4 0 9 -7 16 -15 16
-8 0 -15 -2 -15 -4z"/>
<path d="M7370 5656 c0 -2 7 -6 15 -10 8 -3 15 -1 15 4 0 6 -7 10 -15 10 -8 0
-15 -2 -15 -4z"/>
<path d="M7578 5643 c7 -3 16 -2 19 1 4 3 -2 6 -13 5 -11 0 -14 -3 -6 -6z"/>
<path d="M3205 5630 c3 -5 8 -10 11 -10 2 0 4 5 4 10 0 6 -5 10 -11 10 -5 0
-7 -4 -4 -10z"/>
<path d="M4455 5630 c-16 -7 -17 -9 -3 -9 9 -1 20 4 23 9 7 11 7 11 -20 0z"/>
<path d="M7350 5630 c0 -5 5 -10 11 -10 5 0 7 5 4 10 -3 6 -8 10 -11 10 -2 0
-4 -4 -4 -10z"/>
<path d="M6260 5609 c0 -5 5 -7 10 -4 6 3 10 8 10 11 0 2 -4 4 -10 4 -5 0 -10
-5 -10 -11z"/>
<path d="M7308 5613 c7 -3 16 -2 19 1 4 3 -2 6 -13 5 -11 0 -14 -3 -6 -6z"/>
<path d="M3230 5600 c0 -5 5 -10 11 -10 5 0 7 5 4 10 -3 6 -8 10 -11 10 -2 0
-4 -4 -4 -10z"/>
<path d="M7148 5593 c7 -3 16 -2 19 1 4 3 -2 6 -13 5 -11 0 -14 -3 -6 -6z"/>
<path d="M7600 5596 c0 -2 7 -7 16 -10 8 -3 12 -2 9 4 -6 10 -25 14 -25 6z"/>
<path d="M5403 5525 c0 -33 2 -45 4 -27 2 18 2 45 0 60 -2 15 -4 0 -4 -33z"/>
<path d="M3208 5563 c7 -3 16 -2 19 1 4 3 -2 6 -13 5 -11 0 -14 -3 -6 -6z"/>
<path d="M3835 5540 c3 -5 8 -10 11 -10 2 0 4 5 4 10 0 6 -5 10 -11 10 -5 0
-7 -4 -4 -10z"/>
<path d="M7155 5540 c-3 -5 -1 -10 4 -10 6 0 11 5 11 10 0 6 -2 10 -4 10 -3 0
-8 -4 -11 -10z"/>
<path d="M6755 5450 c3 -5 8 -10 11 -10 2 0 4 5 4 10 0 6 -5 10 -11 10 -5 0
-7 -4 -4 -10z"/>
<path d="M4150 5430 c-13 -8 -12 -10 3 -10 9 0 17 5 17 10 0 12 -1 12 -20 0z"/>
<path d="M6908 5433 c7 -3 16 -2 19 1 4 3 -2 6 -13 5 -11 0 -14 -3 -6 -6z"/>
<path d="M3928 5423 c6 -2 18 -2 25 0 6 3 1 5 -13 5 -14 0 -19 -2 -12 -5z"/>
<path d="M6638 5423 c6 -2 18 -2 25 0 6 3 1 5 -13 5 -14 0 -19 -2 -12 -5z"/>
<path d="M6818 5423 c7 -3 16 -2 19 1 4 3 -2 6 -13 5 -11 0 -14 -3 -6 -6z"/>
<path d="M5910 5410 c0 -5 5 -10 11 -10 5 0 7 5 4 10 -3 6 -8 10 -11 10 -2 0
-4 -4 -4 -10z"/>
<path d="M5935 5390 c-3 -5 -1 -10 4 -10 6 0 11 5 11 10 0 6 -2 10 -4 10 -3 0
-8 -4 -11 -10z"/>
<path d="M5775 5350 c-3 -6 1 -7 9 -4 18 7 21 14 7 14 -6 0 -13 -4 -16 -10z"/>
<path d="M5117 5239 c7 -7 15 -10 18 -7 3 3 -2 9 -12 12 -14 6 -15 5 -6 -5z"/>
<path d="M5238 5233 c7 -3 16 -2 19 1 4 3 -2 6 -13 5 -11 0 -14 -3 -6 -6z"/>
<path d="M5383 5078 c-1 -17 4 -40 12 -51 8 -12 15 -16 15 -10 0 7 -5 15 -11
19 -6 3 -9 19 -5 35 3 15 2 30 -2 33 -4 2 -8 -10 -9 -26z"/>
<path d="M5411 5064 c0 -11 3 -14 6 -6 3 7 2 16 -1 19 -3 4 -6 -2 -5 -13z"/>
<path d="M6880 4591 c0 -6 6 -11 13 -11 8 0 7 -4 -3 -10 -13 -9 -13 -11 0 -20
8 -5 10 -10 5 -10 -17 0 -14 -392 3 -397 7 -3 12 5 13 19 1 23 1 23 9 -2 6
-20 16 97 19 215 1 29 -9 208 -11 210 -12 10 -48 14 -48 6z m37 -108 c-3 -10
-5 -2 -5 17 0 19 2 27 5 18 2 -10 2 -26 0 -35z m-3 -80 c-10 -40 -14 -41 -14
-5 0 18 5 32 10 32 6 0 8 -11 4 -27z m3 -65 c-3 -8 -6 -5 -6 6 -1 11 2 17 5
13 3 -3 4 -12 1 -19z m-20 -30 c-3 -8 -6 -5 -6 6 -1 11 2 17 5 13 3 -3 4 -12
1 -19z m20 -80 c-3 -8 -6 -5 -6 6 -1 11 2 17 5 13 3 -3 4 -12 1 -19z"/>
<path d="M3817 4378 c1 -117 2 -219 3 -226 0 -10 4 -10 20 0 14 9 20 24 20 52
0 23 7 47 17 58 9 10 13 21 9 26 -4 4 -14 -2 -22 -12 -8 -11 -14 -15 -14 -8 0
7 9 17 20 24 11 7 20 16 20 21 0 4 -4 6 -9 3 -5 -4 -12 0 -14 6 -4 8 -6 7 -6
-4 -2 -33 -16 -26 -17 8 0 19 3 29 7 23 4 -6 7 32 8 86 1 54 4 102 8 108 4 6
-2 8 -15 5 -12 -4 -22 -2 -22 2 0 5 8 11 18 13 12 3 10 5 -8 7 l-25 2 25 8 25
8 -25 1 -25 1 2 -212z"/>
<path d="M6613 4583 c-18 -2 -33 -9 -33 -14 0 -6 -6 -9 -12 -6 -31 11 -66 -31
-82 -96 -4 -19 -3 -26 4 -22 6 4 10 -4 10 -19 0 -37 39 -61 139 -86 95 -23
125 -44 133 -92 3 -16 1 -25 -4 -22 -5 4 -16 -3 -24 -14 -8 -11 -29 -24 -47
-27 -17 -4 -38 -12 -44 -17 -9 -7 -13 -7 -13 1 0 6 -5 11 -11 11 -25 0 -77 33
-87 55 -8 16 -17 23 -27 19 -8 -3 -15 -1 -15 5 0 6 -7 11 -16 11 -14 0 -14 -1
0 -16 18 -18 22 -39 5 -28 -6 3 -4 -5 6 -19 19 -30 114 -77 153 -77 35 0 73
11 68 19 -2 3 7 7 21 8 41 2 73 42 79 99 6 43 3 54 -17 78 -25 28 -50 34 -84
21 l-20 -8 20 17 c11 10 14 15 7 11 -7 -4 -18 -2 -25 3 -7 6 -28 13 -48 16
-52 8 -89 24 -89 37 0 7 -2 10 -5 7 -11 -11 8 -38 26 -38 10 0 19 -4 19 -10 0
-19 -21 -10 -51 22 -28 31 -39 55 -20 43 5 -3 12 -1 16 5 3 5 1 10 -4 10 -6 0
-11 5 -11 11 0 5 4 8 9 5 11 -7 23 22 15 35 -3 5 -2 9 3 8 18 -3 34 1 30 9 -3
4 22 8 55 8 33 1 54 -2 48 -6 -8 -5 -7 -9 5 -14 9 -3 21 -4 26 -1 5 4 17 -8
28 -25 18 -30 19 -30 24 -8 11 39 -21 74 -62 69 -7 -2 -10 2 -7 7 6 9 -28 23
-49 20 -5 -1 -25 -3 -42 -5z m-58 -33 c-3 -5 -12 -10 -18 -10 -7 0 -6 4 3 10
19 12 23 12 15 0z m200 -10 c3 -5 2 -10 -4 -10 -5 0 -13 5 -16 10 -3 6 -2 10
4 10 5 0 13 -4 16 -10z m-225 -30 c0 -5 -5 -10 -11 -10 -5 0 -7 5 -4 10 3 6 8
10 11 10 2 0 4 -4 4 -10z m0 -101 c0 -6 -4 -7 -10 -4 -5 3 -10 11 -10 16 0 6
5 7 10 4 6 -3 10 -11 10 -16z m123 -56 c-7 -2 -19 -2 -25 0 -7 3 -2 5 12 5 14
0 19 -2 13 -5z m102 -33 c3 -5 1 -10 -4 -10 -6 0 -11 5 -11 10 0 6 2 10 4 10
3 0 8 -4 11 -10z m55 -42 c0 -19 -2 -20 -10 -8 -8 12 -10 10 -10 -9 0 -13 -3
-22 -6 -18 -9 9 5 57 16 57 6 0 10 -10 10 -22z m-270 -78 c0 -5 -2 -10 -4 -10
-3 0 -8 5 -11 10 -3 6 -1 10 4 10 6 0 11 -4 11 -10z m230 -9 c0 -5 -7 -11 -15
-15 -15 -5 -20 5 -8 17 9 10 23 9 23 -2z m-154 -26 c18 -13 18 -14 -4 -8 -12
3 -25 9 -28 14 -8 14 10 11 32 -6z"/>
<path d="M7620 4571 c0 -12 3 -20 8 -18 4 3 5 -50 3 -116 -3 -90 -6 -113 -12
-87 -8 36 -3 -37 11 -155 l7 -60 3 45 c3 42 3 43 7 10 3 -19 9 -39 15 -45 7
-7 8 12 4 62 -6 60 -5 72 7 68 7 -3 22 4 32 15 19 21 19 21 -8 15 -32 -8 -30
-16 -27 168 2 108 0 117 -17 116 -10 0 -13 -3 -5 -6 6 -2 12 -12 12 -20 0 -12
-5 -10 -20 7 l-20 23 0 -22z m27 -153 c-2 -24 -4 -7 -4 37 0 44 2 63 4 43 2
-21 2 -57 0 -80z"/>
<path d="M8232 4578 c-29 -29 1 -68 42 -52 28 11 13 64 -19 64 -6 0 -16 -5
-23 -12z m18 -34 c0 -8 -4 -12 -10 -9 -5 3 -10 10 -10 16 0 5 5 9 10 9 6 0 10
-7 10 -16z"/>
<path d="M2651 4557 c-6 -8 -8 -17 -4 -21 4 -4 3 -10 -3 -14 -13 -8 -64 -135
-57 -142 2 -2 8 2 13 10 7 11 10 12 10 2 0 -7 4 -11 9 -8 5 4 7 -4 3 -16 -5
-21 -6 -21 -13 -2 -6 17 -7 18 -14 2 -4 -10 -11 -16 -15 -13 -10 6 -22 -24
-14 -36 3 -5 1 -9 -4 -9 -11 0 -67 -159 -58 -167 3 -4 6 -1 6 7 0 10 3 10 15
0 11 -9 15 -9 15 -1 0 7 4 10 9 7 5 -3 14 8 20 26 13 38 14 48 1 28 -8 -13
-10 -12 -10 3 0 9 7 17 15 17 8 0 15 5 15 10 0 7 34 10 90 9 70 -1 93 2 105
15 20 20 25 20 25 0 0 -8 -4 -12 -10 -9 -15 9 -12 -9 5 -31 15 -19 15 -19 9 1
-5 16 -4 17 5 5 6 -8 8 -22 6 -31 -3 -9 -1 -27 5 -40 10 -22 10 -21 6 9 -3 19
-1 32 5 32 6 0 8 10 4 23 -5 16 -4 18 3 8 6 -8 8 -29 5 -46 -3 -19 0 -35 6
-39 6 -4 11 0 11 10 0 16 1 16 15 -2 8 -11 4 11 -11 51 -15 39 -36 97 -48 131
-17 49 -24 58 -34 48 -6 -7 -9 -21 -6 -31 3 -10 -2 -7 -10 7 -16 27 -22 55 -6
30 7 -12 10 -8 10 15 0 23 3 27 10 15 13 -20 13 -5 0 18 -5 9 -15 30 -21 47
-8 24 -12 27 -20 15 -7 -11 -8 -5 -4 20 5 28 4 32 -5 20 -10 -12 -11 -11 -7 8
5 20 1 22 -33 22 -21 0 -43 -6 -49 -13z m68 -84 c13 -32 31 -81 42 -108 31
-82 30 -83 -58 -83 -43 0 -86 4 -95 10 -20 10 -24 33 -7 44 8 4 9 0 4 -15 -3
-11 -4 -21 -2 -21 3 0 17 35 32 78 15 42 31 85 36 94 5 10 6 25 2 34 -5 13 -3
15 7 9 10 -6 12 -4 7 9 -4 9 -3 15 2 12 5 -3 18 -32 30 -63z m31 -28 c0 -5 -5
-3 -10 5 -5 8 -10 20 -10 25 0 6 5 3 10 -5 5 -8 10 -19 10 -25z m-103 3 c-3
-8 -6 -5 -6 6 -1 11 2 17 5 13 3 -3 4 -12 1 -19z m160 -110 c-3 -8 -6 -5 -6 6
-1 11 2 17 5 13 3 -3 4 -12 1 -19z m17 -34 c3 -8 2 -12 -4 -9 -6 3 -10 10 -10
16 0 14 7 11 14 -7z m-278 -86 c-8 -23 -15 -37 -16 -29 0 18 22 82 28 77 2 -2
-3 -24 -12 -48z m181 45 c-20 -2 -52 -2 -70 0 -17 2 0 4 38 4 39 0 53 -2 32
-4z"/>
<path d="M4965 4560 c11 -5 15 -9 8 -9 -7 -1 1 -23 20 -55 18 -30 35 -52 40
-49 4 2 10 -3 13 -11 3 -9 10 -13 15 -10 5 3 6 -8 3 -24 -4 -19 1 -39 14 -62
11 -18 18 -40 15 -49 -4 -14 -3 -14 6 -1 8 11 11 -4 11 -61 0 -75 1 -76 25
-76 25 0 25 1 25 81 0 45 4 86 10 92 5 5 11 18 12 29 2 11 7 20 12 20 13 0 26
42 20 63 -5 13 -4 14 4 3 15 -21 46 43 38 78 -6 23 -5 24 5 7 11 -18 12 -18
25 5 19 35 17 39 -15 39 -31 0 -44 -18 -35 -47 5 -15 4 -15 -5 -3 -8 11 -19
-5 -54 -77 -34 -72 -46 -90 -58 -82 -7 5 -9 9 -4 9 7 0 7 3 0 8 -5 4 -23 35
-39 69 -16 34 -33 60 -37 57 -5 -2 -12 10 -17 28 -7 29 -13 33 -43 35 -27 2
-30 1 -14 -7z m38 -30 c-3 -11 -7 -20 -9 -20 -2 0 -4 9 -4 20 0 11 4 20 9 20
5 0 7 -9 4 -20z m27 -65 c0 -5 -5 -3 -10 5 -5 8 -10 20 -10 25 0 6 5 3 10 -5
5 -8 10 -19 10 -25z m181 12 c-10 -9 -11 -8 -5 6 3 10 9 15 12 12 3 -3 0 -11
-7 -18z m32 -2 c-3 -9 -8 -14 -10 -11 -3 3 -2 9 2 15 9 16 15 13 8 -4z m-121
-159 c-3 -5 -11 -1 -19 9 -19 27 -16 38 5 18 11 -10 17 -22 14 -27z m48 30 c0
-3 -4 -8 -10 -11 -5 -3 -10 -1 -10 4 0 6 5 11 10 11 6 0 10 -2 10 -4z m-33
-78 c-3 -8 -6 -5 -6 6 -1 11 2 17 5 13 3 -3 4 -12 1 -19z"/>
<path d="M7983 4543 c-7 -3 -13 -21 -14 -41 0 -35 -17 -91 -18 -64 -2 22 -41
14 -41 -8 0 -16 5 -19 23 -17 13 3 30 -4 42 -16 11 -11 14 -17 8 -13 -18 10
-17 -160 0 -194 16 -31 77 -62 94 -48 7 5 17 7 23 3 13 -8 70 32 70 50 0 8 -5
17 -11 21 -8 4 -9 -1 -4 -17 5 -18 4 -20 -4 -9 -8 12 -13 12 -23 2 -18 -18
-67 -15 -94 7 -13 11 -20 21 -14 23 8 2 7 19 -1 56 -6 30 -9 67 -7 83 3 16 0
31 -6 33 -6 2 -3 5 7 5 9 1 17 5 17 9 0 4 29 6 63 4 53 -3 64 -2 64 12 0 15
-36 22 -97 18 -36 -2 -52 19 -48 62 3 41 -2 48 -29 39z m57 -109 c0 -2 -11 -4
-25 -4 -14 0 -25 4 -25 9 0 4 11 6 25 3 14 -2 25 -6 25 -8z m-63 -16 c-3 -8
-6 -5 -6 6 -1 11 2 17 5 13 3 -3 4 -12 1 -19z m68 -256 c-3 -3 -11 0 -18 7 -9
10 -8 11 6 5 10 -3 15 -9 12 -12z m90 8 c-3 -5 -14 -10 -23 -10 -15 0 -15 2
-2 10 20 13 33 13 25 0z"/>
<path d="M6720 4514 c1 -16 29 -60 29 -44 0 8 -6 24 -14 34 -8 11 -15 16 -15
10z"/>
<path d="M3510 4447 c0 -5 15 -6 33 -3 32 6 32 6 4 -5 -20 -8 -31 -8 -41 0
-10 9 -18 7 -34 -6 -22 -20 -42 -71 -23 -59 6 4 11 1 11 -6 0 -7 10 0 23 15
32 40 100 48 140 17 42 -34 34 -69 -17 -76 -12 -1 -43 -5 -70 -8 -60 -7 -112
-38 -120 -72 -8 -32 14 -79 38 -77 10 0 15 -4 13 -11 -3 -6 4 -12 14 -12 12 0
18 5 14 14 -3 8 0 12 7 9 7 -2 12 -12 12 -21 -2 -16 0 -16 23 0 14 9 22 11 19
5 -13 -21 13 -11 28 11 9 12 16 19 16 14 0 -5 7 -3 15 4 28 23 15 28 -22 8
-42 -21 -85 -18 -115 9 -39 35 -11 78 61 89 30 5 39 9 29 16 -9 7 -5 8 12 3
14 -4 33 -7 43 -6 24 0 30 -19 18 -52 -8 -21 -7 -35 6 -61 16 -35 52 -54 64
-34 4 7 8 6 12 -3 4 -9 6 -8 6 5 1 10 -7 25 -16 32 -15 10 -18 27 -16 99 1 61
-1 84 -9 79 -8 -5 -9 -1 -4 11 7 20 -18 55 -41 55 -7 0 -13 4 -13 10 0 5 -7 6
-17 3 -9 -4 -14 -2 -11 3 4 5 -16 9 -43 9 -27 1 -49 -3 -49 -8z m160 -47 c8
-5 11 -12 7 -16 -4 -4 -15 0 -24 9 -18 18 -8 23 17 7z m20 -74 c0 -14 -5 -28
-11 -32 -8 -4 -9 1 -4 17 7 21 6 22 -8 11 -13 -11 -15 -10 -10 7 8 29 33 26
33 -3z m-190 -31 c0 -2 -9 -9 -20 -15 -12 -6 -20 -7 -20 -1 0 5 8 12 18 14 9
3 18 5 20 6 1 0 2 -1 2 -4z m180 -60 c0 -5 -5 -3 -10 5 -5 8 -10 20 -10 25 0
6 5 3 10 -5 5 -8 10 -19 10 -25z m10 -36 c0 -6 -4 -7 -10 -4 -5 3 -10 11 -10
16 0 6 5 7 10 4 6 -3 10 -11 10 -16z m-246 -15 c3 -8 2 -12 -4 -9 -6 3 -10 10
-10 16 0 14 7 11 14 -7z"/>
<path d="M4186 4435 c4 -15 3 -17 -5 -5 -28 41 -114 -68 -92 -117 7 -15 7 -22
1 -18 -5 3 -10 2 -10 -4 0 -5 8 -12 18 -14 16 -4 16 -5 0 -6 -10 0 -18 -5 -18
-9 0 -16 59 -91 79 -101 39 -22 45 -10 7 15 -29 20 -35 28 -25 35 12 7 11 13
-3 38 -15 28 -15 29 5 35 12 3 36 6 54 6 17 0 34 6 36 13 4 10 6 10 6 0 1 -7
9 -13 19 -13 14 0 15 2 2 10 -9 6 -10 10 -3 10 6 0 14 -4 17 -9 3 -5 24 -11
45 -13 31 -3 37 -1 29 9 -7 9 -7 13 0 13 6 0 14 -4 17 -10 13 -21 20 -8 17 30
-2 22 -8 40 -14 40 -5 0 -6 4 -3 10 6 9 -47 68 -63 71 -4 1 -33 2 -64 3 -54 1
-58 0 -52 -19z m66 -2 c6 -15 76 -45 87 -39 6 4 11 2 11 -4 0 -6 -7 -13 -15
-16 -11 -5 -13 -10 -5 -19 6 -7 8 -19 5 -26 -4 -11 -24 -13 -86 -11 -56 3 -85
0 -96 -10 -12 -9 -15 -10 -9 0 4 7 1 15 -8 18 -14 5 -14 8 -1 21 8 8 15 20 15
27 0 14 51 46 77 47 16 0 16 1 -2 9 -19 8 -19 9 2 9 12 1 23 -2 25 -6z m-100
-29 c-12 -8 -19 -20 -16 -26 4 -7 2 -8 -4 -4 -15 9 7 46 28 46 10 0 7 -5 -8
-16z m213 -64 c3 -5 1 -10 -4 -10 -6 0 -11 5 -11 10 0 6 2 10 4 10 3 0 8 -4
11 -10z"/>
<path d="M4616 4451 c-34 -5 -55 -15 -70 -32 -12 -14 -33 -28 -47 -32 -21 -5
-22 -4 -7 7 23 17 13 56 -13 49 -17 -5 -19 -15 -19 -102 0 -53 -2 -114 -5
-136 -4 -35 -3 -36 4 -10 8 29 9 28 10 -12 1 -33 4 -41 16 -37 11 5 15 23 15
71 0 75 16 149 39 178 10 12 31 21 53 23 31 3 43 -2 68 -26 16 -16 30 -28 32
-27 2 2 3 -47 2 -108 0 -100 0 -102 3 -19 2 50 7 92 11 92 4 0 6 -44 4 -97 -2
-61 1 -93 7 -84 7 11 9 11 14 0 4 -8 6 42 5 111 -1 132 -10 172 -36 163 -11
-5 -13 -3 -7 7 6 10 4 12 -8 7 -9 -3 -19 -2 -22 3 -3 4 1 11 7 13 16 7 6 6
-56 -2z m74 -46 c7 -8 8 -15 2 -15 -5 0 -15 7 -22 15 -7 8 -8 15 -2 15 5 0 15
-7 22 -15z m-190 -70 c-6 -30 -8 -33 -9 -13 -1 25 8 62 14 56 2 -2 -1 -21 -5
-43z m227 -67 c-3 -7 -5 -2 -5 12 0 14 2 19 5 13 2 -7 2 -19 0 -25z m0 -80
c-3 -8 -6 -5 -6 6 -1 11 2 17 5 13 3 -3 4 -12 1 -19z"/>
<path d="M5390 4448 c0 -5 -6 -8 -14 -8 -7 0 -25 -11 -39 -24 -23 -21 -25 -29
-17 -51 12 -32 13 -112 1 -119 -5 -3 -6 13 -4 37 3 23 0 53 -5 67 -9 25 -10
24 -20 -13 -12 -44 -2 -90 25 -115 11 -9 13 -13 6 -8 -8 5 -13 5 -13 -1 0 -17
73 -74 88 -68 8 3 21 0 30 -7 13 -11 15 -10 10 9 -4 16 -2 20 8 16 8 -3 11
-10 7 -16 -4 -6 2 -8 18 -4 13 4 32 7 41 7 10 0 33 13 51 30 44 39 66 108 48
154 -7 17 -13 37 -15 43 -4 21 -48 63 -66 63 -9 0 -22 6 -29 13 -11 10 -14 9
-18 -1 -3 -6 -10 -9 -16 -5 -15 10 -77 10 -77 1z m65 -16 c-3 -3 -11 0 -18 7
-9 10 -8 11 6 5 10 -3 15 -9 12 -12z m-8 -12 c26 0 103 -29 101 -38 -2 -18 3
-26 10 -14 13 20 2 -110 -11 -137 -7 -13 -27 -31 -46 -38 -27 -12 -31 -17 -20
-25 10 -7 9 -8 -6 -2 -11 4 -30 8 -42 8 -11 1 -19 5 -16 10 4 5 -7 6 -23 3
-16 -3 -23 -4 -16 -1 10 5 10 9 1 20 -6 8 -15 12 -18 9 -8 -5 -9 -2 -17 66 -4
32 -1 56 10 76 12 24 12 33 3 44 -10 11 -9 11 6 0 15 -12 21 -9 19 10 -1 4 9
4 21 1 20 -5 21 -4 7 14 -11 15 -11 16 0 7 8 -7 24 -13 37 -13z m114 -17 c13
-16 12 -17 -3 -4 -10 7 -18 15 -18 17 0 8 8 3 21 -13z m16 -130 c-2 -16 -4 -3
-4 27 0 30 2 43 4 28 2 -16 2 -40 0 -55z m24 24 c-10 -9 -11 -8 -5 6 3 10 9
15 12 12 3 -3 0 -11 -7 -18z m-41 -107 c0 -5 -5 -10 -11 -10 -5 0 -7 5 -4 10
3 6 8 10 11 10 2 0 4 -4 4 -10z"/>
<path d="M6180 4449 c0 -15 18 -19 42 -10 12 6 19 10 13 11 -39 6 -55 6 -55
-1z"/>
<path d="M7005 4448 c-28 -15 -58 -48 -51 -55 3 -3 11 -1 18 5 27 22 82 23
108 3 23 -18 24 -26 28 -138 4 -111 9 -144 19 -116 2 7 11 9 20 6 13 -5 15 10
11 127 l-4 132 -29 24 c-17 13 -31 20 -33 14 -2 -5 -13 -5 -28 1 -31 11 -34
11 -59 -3z m43 -13 c-2 -1 -16 -5 -33 -9 l-30 -6 25 14 c14 8 28 12 33 9 5 -3
7 -6 5 -8z m93 -156 c-5 -30 -9 -42 -10 -28 -1 30 10 92 15 86 3 -2 0 -28 -5
-58z"/>
<path d="M7300 4452 c-25 -7 -70 -55 -70 -73 0 -10 10 -19 25 -21 13 -3 22 -2
20 2 -2 4 4 16 15 26 63 61 73 69 67 52 -4 -12 -2 -15 8 -12 13 5 95 -31 95
-42 0 -3 -6 -2 -12 1 -7 3 -6 0 3 -6 14 -11 14 -15 1 -41 -12 -25 -18 -28 -44
-23 -46 11 -116 -4 -138 -28 -11 -11 -20 -17 -20 -13 0 5 -7 3 -15 -4 -25 -21
-19 -77 11 -105 15 -14 30 -22 35 -19 5 3 18 0 30 -7 17 -9 20 -8 14 2 -6 9
-3 11 8 6 21 -8 55 4 87 32 l24 22 16 -28 c10 -20 23 -29 42 -29 15 -1 25 3
22 7 -3 5 1 9 8 10 7 0 3 5 -8 11 -20 9 -22 18 -22 109 0 104 -12 142 -50 156
-9 4 -20 11 -24 17 -5 7 -8 3 -8 -8 0 -19 0 -19 -22 0 -12 10 -18 13 -14 7 4
-7 2 -13 -3 -13 -6 0 -11 4 -11 8 0 9 -45 12 -70 4z m20 -12 c0 -5 -5 -10 -11
-10 -5 0 -7 5 -4 10 3 6 8 10 11 10 2 0 4 -4 4 -10z m140 -14 c0 -2 -7 -7 -16
-10 -8 -3 -12 -2 -9 4 6 10 25 14 25 6z m-153 -12 c-3 -3 -12 -4 -19 -1 -8 3
-5 6 6 6 11 1 17 -2 13 -5z m-53 -26 c-5 -8 -1 -9 12 -4 14 5 16 4 7 -5 -13
-13 -37 -3 -28 12 4 5 8 9 11 9 3 0 2 -5 -2 -12z m233 -85 c-2 -16 -4 -5 -4
22 0 28 2 40 4 28 2 -13 2 -35 0 -50z m-29 -19 c6 -7 12 -25 11 -41 l-1 -28
-8 25 c-7 22 -8 23 -9 4 -2 -47 -81 -82 -141 -62 -37 12 -71 38 -49 38 8 0 8
4 1 13 -7 8 -5 16 6 27 9 8 17 14 17 12 0 -2 11 1 25 6 57 22 129 24 148 6z
m-199 -109 c0 -5 -6 -1 -14 9 -8 11 -15 24 -15 30 0 5 7 1 15 -10 8 -10 14
-23 14 -29z m46 -13 c-3 -3 -11 0 -18 7 -9 10 -8 11 6 5 10 -3 15 -9 12 -12z"/>
<path d="M3305 4356 c-14 -50 -31 -101 -36 -114 -6 -15 -6 -21 1 -17 14 9 12
-4 -3 -19 -11 -11 -16 -11 -32 0 -10 8 -14 14 -8 14 6 0 9 9 6 21 -5 16 -8 18
-15 7 -6 -9 -7 -5 -3 11 8 27 -14 48 -28 28 -6 -8 -7 -7 -4 3 2 8 10 14 17 12
13 -3 3 39 -12 49 -5 3 -8 12 -7 20 1 8 -1 26 -5 42 -7 22 -14 27 -41 27 -32
0 -33 -2 -55 -72 -12 -40 -25 -80 -28 -88 -3 -8 -7 -19 -7 -25 -4 -26 -26 -66
-34 -61 -4 3 -11 24 -15 46 -4 23 -11 38 -16 35 -6 -3 -10 1 -10 10 0 9 4 13
10 10 8 -5 -13 54 -28 80 -4 6 -5 20 -4 32 2 11 -2 24 -7 28 -7 4 -9 -1 -5
-12 5 -17 5 -17 -9 0 -8 9 -20 17 -26 17 -7 0 -11 -8 -9 -17 2 -10 10 -17 16
-15 8 1 12 -7 10 -20 -5 -36 34 -168 49 -168 7 0 13 8 14 18 0 12 2 13 6 3 3
-8 -2 -20 -11 -26 -15 -11 -15 -16 -1 -46 8 -19 14 -27 15 -19 0 9 3 11 8 4 4
-5 17 -10 29 -10 19 0 26 11 43 66 11 36 22 74 25 85 10 43 34 100 42 98 4 -1
13 -21 19 -45 9 -33 12 -39 17 -23 4 12 5 8 3 -9 -4 -33 11 -86 25 -86 5 0 9
-5 9 -11 0 -5 -4 -7 -10 -4 -5 3 -2 -11 6 -32 21 -49 29 -56 20 -18 -5 26 -5
28 6 10 32 -56 58 -31 88 83 13 48 27 93 33 99 5 7 7 20 3 28 -4 11 -2 14 6 9
7 -5 9 0 6 14 -4 12 -2 20 3 16 5 -3 9 -1 9 4 0 5 -11 12 -24 14 -22 5 -26 -1
-51 -86z m-138 22 c-3 -8 -6 -5 -6 6 -1 11 2 17 5 13 3 -3 4 -12 1 -19z m-217
-33 c0 -8 -2 -15 -4 -15 -2 0 -6 7 -10 15 -3 8 -1 15 4 15 6 0 10 -7 10 -15z
m137 -7 c-3 -8 -6 -5 -6 6 -1 11 2 17 5 13 3 -3 4 -12 1 -19z m230 -23 c-1
-22 -4 -30 -9 -22 -6 12 -1 57 7 57 2 0 3 -16 2 -35z m-247 -52 c-11 -17 -11
-17 -6 0 3 10 7 28 7 40 2 22 2 22 6 0 2 -12 -1 -30 -7 -40z m227 -45 c-3 -7
-5 -2 -5 12 0 14 2 19 5 13 2 -7 2 -19 0 -25z m-241 -22 c-7 -23 -14 -32 -20
-26 -7 7 -6 14 2 22 7 7 12 20 12 31 0 10 4 16 9 13 4 -3 3 -21 -3 -40z m-61
-6 c3 -5 1 -10 -4 -10 -6 0 -11 5 -11 10 0 6 2 10 4 10 3 0 8 -4 11 -10z"/>
<path d="M3947 4391 c-32 -33 -52 -62 -52 -78 -1 -13 4 -22 10 -19 6 2 28 -23
49 -55 21 -33 43 -56 49 -52 6 3 7 1 3 -6 -4 -6 -1 -18 8 -26 19 -19 26 -19
26 2 0 15 2 14 15 -3 15 -17 15 -16 1 11 -8 17 -22 39 -31 50 -9 11 -13 14 -9
6 4 -9 3 -12 -4 -7 -6 4 -9 12 -6 19 2 7 -8 25 -23 42 -16 16 -27 31 -26 32 1
2 0 10 -4 19 -4 10 11 32 46 65 28 28 51 52 51 54 0 1 -11 2 -25 1 -16 0 -44
-20 -78 -55z m38 4 c-15 -14 -29 -25 -31 -23 -2 2 8 16 22 32 14 15 28 25 31
23 2 -3 -8 -17 -22 -32z m-51 -59 c-6 -15 -24 -23 -24 -11 0 8 24 34 28 30 1
-1 0 -10 -4 -19z m16 -30 c0 -3 -4 -8 -10 -11 -5 -3 -10 -1 -10 4 0 6 5 11 10
11 6 0 10 -2 10 -4z"/>
<path d="M6116 4428 c-20 -28 -21 -44 -1 -28 8 7 15 19 15 26 0 8 5 14 11 14
5 0 7 -4 4 -10 -3 -5 1 -10 9 -10 26 0 66 -23 66 -37 0 -16 24 -28 39 -19 6 4
6 17 -1 37 -10 28 -13 30 -44 24 -26 -4 -36 -2 -40 10 -9 22 -40 18 -58 -7z
m132 -33 c-3 -3 -9 2 -12 12 -6 14 -5 15 5 6 7 -7 10 -15 7 -18z"/>
<path d="M7823 4443 c-21 -3 -37 -12 -44 -26 -12 -22 -12 -22 10 -3 23 21 27
16 9 -13 -9 -15 -16 -17 -30 -10 -15 8 -18 6 -18 -11 0 -12 -4 -19 -8 -16 -5
3 -22 -8 -37 -24 -16 -17 -23 -30 -17 -30 7 0 15 7 18 15 10 24 21 17 18 -11
-2 -18 2 -24 11 -21 8 4 11 0 8 -11 -2 -10 5 -27 16 -39 12 -12 21 -25 21 -28
0 -3 10 -21 22 -39 17 -26 30 -34 50 -34 17 1 25 5 21 12 -4 6 -31 48 -60 93
-29 46 -53 86 -53 90 0 4 23 31 52 60 29 29 50 52 48 51 -3 0 -20 -3 -37 -5z"/>
<path d="M5673 4343 c-1 -69 3 -103 13 -117 17 -24 18 -40 3 -31 -6 4 -5 -2 2
-13 24 -38 52 -46 111 -32 29 7 61 21 72 32 24 26 16 32 -20 13 -44 -23 -73
-18 -105 17 -29 30 -30 34 -25 102 3 51 2 60 -3 31 l-8 -40 -2 43 c0 23 4 42
9 42 6 0 10 11 10 25 0 21 -5 25 -28 25 l-28 0 -1 -97z m27 73 c0 -3 -4 -8
-10 -11 -5 -3 -10 -1 -10 4 0 6 5 11 10 11 6 0 10 -2 10 -4z m-10 -126 l-11
-25 6 25 c2 14 6 41 7 60 l1 35 4 -35 c2 -20 -1 -47 -7 -60z m86 -117 c-6 -6
-36 9 -36 18 0 5 9 4 20 -3 10 -7 18 -14 16 -15z m-56 7 c0 -5 -2 -10 -4 -10
-3 0 -8 5 -11 10 -3 6 -1 10 4 10 6 0 11 -4 11 -10z m97 -16 c-3 -3 -12 -4
-19 -1 -8 3 -5 6 6 6 11 1 17 -2 13 -5z m-44 -11 c-7 -2 -19 -2 -25 0 -7 3 -2
5 12 5 14 0 19 -2 13 -5z"/>
<path d="M5902 4348 c1 -51 -1 -98 -5 -104 -7 -13 12 -73 31 -92 10 -11 12 13
12 121 0 75 3 142 6 151 5 12 0 16 -21 16 l-26 0 3 -92z m9 -115 c-12 -20 -14
-14 -5 12 4 9 9 14 11 11 3 -2 0 -13 -6 -23z"/>
<path d="M6036 4298 c1 -118 4 -144 16 -146 20 -4 27 42 23 134 -2 39 0 60 4
49 7 -17 9 -14 13 15 6 41 0 63 -15 53 -6 -4 -8 2 -5 15 5 18 2 22 -15 22 -22
0 -22 -3 -21 -142z"/>
<path d="M8234 4432 c-8 -5 -9 -39 -5 -109 3 -57 3 -103 -1 -103 -5 0 -8 -5
-8 -11 0 -5 5 -7 11 -3 7 4 7 -1 -1 -16 -17 -31 -7 -49 24 -43 l26 5 0 144 c0
131 -2 144 -17 144 -10 0 -23 -4 -29 -8z"/>
<path d="M5030 4421 c0 -5 5 -13 10 -16 6 -3 10 -2 10 4 0 5 -4 13 -10 16 -5
3 -10 2 -10 -4z"/>
<path d="M3426 4395 c-9 -26 -7 -32 5 -12 6 10 9 21 6 23 -2 3 -7 -2 -11 -11z"/>
<path d="M5954 4265 c0 -66 1 -92 3 -57 2 34 2 88 0 120 -2 31 -3 3 -3 -63z"/>
<path d="M4335 4201 c-49 -30 -95 -34 -140 -11 -21 11 -41 17 -44 14 -8 -7 19
-24 52 -31 20 -4 25 -8 16 -14 -8 -4 -11 -11 -7 -14 11 -11 60 -16 72 -7 6 6
26 13 43 17 33 7 67 41 57 57 -7 12 -15 10 -49 -11z m16 -21 c-13 -11 -33 -19
-45 -19 -20 1 -20 2 -1 6 11 3 29 12 40 19 29 21 34 16 6 -6z m-91 -24 c0 -2
-7 -7 -16 -10 -8 -3 -12 -2 -9 4 6 10 25 14 25 6z"/>
<path d="M3740 4164 c0 -8 5 -12 10 -9 6 4 8 11 5 16 -9 14 -15 11 -15 -7z"/>
<path d="M7547 4159 c-4 -16 -3 -18 9 -8 7 6 11 15 8 20 -8 13 -11 11 -17 -12z"/>
<path d="M4275 3858 c-9 -35 0 -48 31 -46 28 3 41 32 24 53 -17 20 -30 19 -31
-2 0 -15 -2 -15 -9 2 -7 18 -8 18 -15 -7z m50 -7 c3 -5 1 -12 -5 -16 -5 -3
-10 1 -10 9 0 18 6 21 15 7z"/>
<path d="M4720 3870 c23 -7 23 -8 3 -9 -21 -1 -21 -4 -21 -138 1 -76 5 -146
10 -157 7 -13 7 -16 -1 -12 -7 5 -11 -5 -11 -29 0 -24 4 -34 11 -29 7 4 7 -1
-1 -16 -15 -29 -6 -50 19 -43 17 4 20 16 25 111 6 130 6 107 0 230 l-6 102
-26 -1 -27 -1 25 -8z m17 -67 c-3 -10 -5 -2 -5 17 0 19 2 27 5 18 2 -10 2 -26
0 -35z m0 -75 c0 -33 -2 -38 -8 -21 -6 18 -2 63 6 63 1 0 2 -19 2 -42z m3
-132 c0 -26 -6 -18 -14 19 -5 22 -4 26 4 15 5 -8 10 -24 10 -34z m-3 -73 c-3
-10 -5 -4 -5 12 0 17 2 24 5 18 2 -7 2 -21 0 -30z m0 -45 c-3 -8 -6 -5 -6 6
-1 11 2 17 5 13 3 -3 4 -12 1 -19z m0 -24 c-3 -3 -12 -4 -19 -1 -8 3 -5 6 6 6
11 1 17 -2 13 -5z"/>
<path d="M5294 3864 c-36 -15 -74 -59 -73 -83 0 -10 4 -8 10 7 10 26 48 62 64
61 6 0 4 -3 -3 -6 -6 -2 -9 -10 -6 -15 4 -6 2 -8 -4 -4 -13 8 -42 -31 -42 -56
0 -10 -4 -17 -9 -15 -12 3 -14 -8 -7 -43 3 -17 11 -30 18 -30 9 0 9 3 0 12 -7
7 -12 21 -12 33 0 16 3 15 15 -9 9 -16 14 -35 11 -42 -4 -11 21 -19 154 -54
50 -13 80 -35 81 -59 0 -12 3 -11 9 4 5 11 9 15 9 8 2 -23 -42 -85 -66 -94
-13 -5 -46 -9 -73 -9 -52 0 -82 20 -115 78 -9 15 -14 19 -11 9 16 -49 17 -67
8 -67 -6 0 -14 5 -18 12 -4 7 -3 8 4 4 15 -9 15 -5 2 28 -7 18 -16 26 -32 25
-19 -1 -19 -2 -5 -6 13 -3 17 -11 13 -26 -4 -15 4 -30 29 -52 33 -32 82 -55
68 -32 -4 7 0 8 11 4 10 -4 32 -8 49 -8 30 -2 29 -2 -8 -9 l-40 -7 42 -2 c23
0 54 4 70 11 15 6 33 12 39 13 17 4 54 38 54 50 0 5 -4 4 -9 -4 -6 -9 -8 -5
-8 14 0 19 2 23 8 14 8 -12 11 -11 19 1 13 20 13 53 0 45 -5 -3 -10 -2 -10 4
0 5 6 11 12 13 8 3 0 17 -21 36 -19 17 -37 29 -39 27 -3 -3 -10 2 -16 10 -6 7
-29 16 -51 20 -32 4 -35 3 -17 -4 33 -15 27 -22 -8 -10 -16 6 -27 15 -24 20 3
5 -6 9 -19 9 -13 0 -36 9 -51 21 -21 16 -26 28 -25 62 0 23 3 37 5 30 4 -8 11
-7 23 5 10 9 16 20 14 25 -2 4 4 7 14 7 11 0 25 6 32 13 11 10 13 9 9 -3 -5
-13 2 -15 31 -13 20 2 30 0 23 -3 -8 -4 -4 -13 15 -27 15 -12 31 -21 35 -19
13 4 9 -16 -4 -21 -7 -3 -3 -6 10 -6 15 -1 22 5 22 17 0 14 2 15 10 2 17 -26
11 0 -6 30 -24 39 -68 63 -104 55 -17 -4 -30 -3 -30 2 0 14 -42 12 -76 -3z
m143 -10 c-3 -3 -12 -4 -19 -1 -8 3 -5 6 6 6 11 1 17 -2 13 -5z m37 -22 c2 -4
1 -14 -3 -21 -6 -9 -11 -10 -15 -2 -4 6 -1 11 6 11 9 0 9 3 -2 10 -9 6 -10 10
-3 10 6 0 14 -4 17 -8z m-217 -104 c-3 -7 -5 -2 -5 12 0 14 2 19 5 13 2 -7 2
-19 0 -25z m68 -58 c-12 -5 -14 -9 -6 -9 8 -1 12 -3 10 -6 -3 -2 -15 -2 -28 2
-17 4 -19 8 -9 14 7 5 22 8 33 8 l20 0 -20 -9z m95 -30 c17 -6 9 -7 -25 -3
-27 3 -52 7 -54 9 -8 7 54 2 79 -6z m66 -25 c10 -8 15 -14 9 -14 -5 0 -19 6
-29 14 -11 8 -15 15 -10 15 6 0 19 -7 30 -15z m4 -145 c0 -5 -4 -10 -9 -10 -6
0 -13 5 -16 10 -3 6 1 10 9 10 9 0 16 -4 16 -10z m-40 -10 c0 -5 -12 -10 -27
-9 l-28 1 25 8 c14 4 26 8 28 9 1 1 2 -3 2 -9z m-67 -7 c-7 -2 -21 -2 -30 0
-10 3 -4 5 12 5 17 0 24 -2 18 -5z"/>
<path d="M6319 3864 c-17 -20 -1 -48 31 -52 18 -3 21 0 17 13 -4 9 -3 14 3 10
14 -9 12 19 -2 33 -16 16 -33 15 -49 -4z m26 -43 c-6 -5 -25 10 -25 20 0 5 6
4 14 -3 8 -7 12 -15 11 -17z"/>
<path d="M4457 3833 c-9 -19 -6 -65 5 -77 19 -20 38 6 37 51 -1 22 -3 29 -6
16 -3 -18 -7 -20 -18 -10 -9 9 -10 14 -1 19 8 6 8 8 -1 8 -6 0 -14 -3 -16 -7z
m28 -53 c-3 -5 -12 -10 -18 -10 -7 0 -6 4 3 10 19 12 23 12 15 0z"/>
<path d="M6494 3824 c-10 -8 -13 -13 -6 -9 15 7 16 -11 2 -20 -8 -5 -8 -11 0
-20 8 -9 7 -17 -3 -27 -8 -7 -16 -20 -20 -28 -4 -12 -6 -11 -6 3 -1 10 -9 17
-22 17 -14 0 -19 -5 -17 -17 2 -13 13 -18 36 -18 l32 0 -3 -95 c-4 -117 5
-144 58 -170 50 -24 59 -25 79 -4 26 25 18 34 -25 29 -26 -4 -38 -2 -34 5 3 5
0 10 -8 10 -8 0 -18 7 -21 16 -6 14 -4 15 9 4 14 -12 15 -11 6 11 -15 35 -30
159 -18 152 6 -3 8 4 5 18 -4 24 -3 24 64 22 62 -2 68 0 68 18 0 18 -5 19 -50
13 -36 -5 -55 -3 -67 7 -16 13 -17 12 -4 -3 7 -10 9 -18 3 -18 -15 0 -23 28
-16 56 3 13 1 31 -5 38 -9 11 -9 15 1 19 9 4 8 6 -3 6 -8 1 -24 -6 -35 -15z
m28 -46 c-7 -7 -12 -8 -12 -2 0 14 12 26 19 19 2 -3 -1 -11 -7 -17z m-2 -42
c0 -2 -7 -7 -16 -10 -8 -3 -12 -2 -9 4 6 10 25 14 25 6z m98 -23 c-10 -2 -28
-2 -40 0 -13 2 -5 4 17 4 22 1 32 -1 23 -4z m-112 -141 c-18 -16 -19 -16 -12
1 3 10 6 24 6 30 0 8 4 7 12 -1 10 -9 8 -16 -6 -30z m17 -32 c-3 -11 -7 -20
-9 -20 -2 0 -4 9 -4 20 0 11 4 20 9 20 5 0 7 -9 4 -20z"/>
<path d="M6875 3749 c-4 -6 -14 -8 -23 -4 -18 7 -87 -36 -102 -65 -9 -16 -8
-21 5 -25 8 -3 22 -7 31 -10 8 -3 12 0 9 5 -9 14 17 38 60 55 31 14 38 14 72
-2 52 -26 64 -49 36 -72 -12 -10 -19 -22 -15 -26 4 -4 -7 -4 -24 -1 -24 5 -33
3 -37 -8 -7 -18 -5 -19 46 -7 26 6 37 6 37 -3 0 -6 5 -4 10 4 9 13 10 13 10 0
0 -13 1 -13 10 0 8 13 10 13 10 -1 0 -9 -9 -19 -20 -22 -11 -3 -20 -14 -20
-24 0 -29 -56 -82 -80 -76 -12 3 -22 -1 -26 -11 -3 -9 -10 -16 -15 -16 -4 0
-6 6 -3 14 4 9 -6 16 -30 20 -20 4 -36 11 -36 17 0 6 6 7 13 3 10 -6 10 -4 0
7 -20 20 -17 26 39 69 45 36 48 40 22 34 -16 -3 -34 -12 -40 -20 -7 -9 -14
-10 -20 -4 -12 12 -50 -25 -56 -55 -20 -93 161 -134 206 -47 l14 26 16 -31
c21 -41 31 -46 58 -32 21 11 22 11 10 -4 -12 -14 -11 -15 12 -4 26 12 36 37
15 37 -5 0 -7 -6 -3 -12 6 -10 5 -10 -8 -1 -8 7 -18 10 -21 6 -4 -3 -7 -1 -7
5 0 7 -3 11 -7 11 -29 -5 -43 3 -42 24 1 16 2 18 6 5 10 -38 31 -18 35 31 4
58 0 83 -13 76 -5 -4 -9 6 -9 20 0 15 -5 36 -12 48 -10 20 -10 21 5 9 9 -8 18
-26 20 -40 l4 -27 2 28 c1 35 -53 97 -71 79 -14 -14 -38 -16 -38 -2 0 5 7 7
15 4 8 -4 15 -1 15 5 0 15 -33 14 -49 -1 -11 -11 -13 -10 -8 5 7 19 2 23 -8 6z
m-10 -19 c17 -7 14 -9 -13 -9 -20 -1 -31 3 -27 9 7 12 13 12 40 0z m-55 -29
c0 -5 -7 -11 -15 -15 -15 -5 -20 5 -8 17 9 10 23 9 23 -2z m-53 -208 c-3 -10
-5 -4 -5 12 0 17 2 24 5 18 2 -7 2 -21 0 -30z m250 15 c-3 -8 -6 -5 -6 6 -1
11 2 17 5 13 3 -3 4 -12 1 -19z m-200 -54 c-3 -3 -12 -4 -19 -1 -8 3 -5 6 6 6
11 1 17 -2 13 -5z"/>
<path d="M4431 3743 c-7 -3 -23 -15 -34 -26 l-20 -20 28 7 c39 10 45 -4 45
-117 0 -96 11 -144 31 -132 5 4 9 1 9 -5 0 -7 6 -10 14 -7 8 3 17 -1 20 -9 7
-19 18 -18 70 7 46 21 64 45 47 62 -5 5 -17 1 -30 -12 -26 -26 -72 -27 -94 -3
-13 14 -17 39 -17 104 0 66 -3 87 -15 91 -12 5 -15 -11 -18 -96 l-3 -102 -2
107 c-1 78 1 108 11 111 6 2 48 3 92 1 63 -2 71 -1 35 5 l-45 8 44 1 c24 1 42
4 40 7 -9 8 -129 11 -129 3 0 -5 -5 -6 -10 -3 -6 4 -7 12 -3 18 4 8 1 7 -9 -1
-11 -9 -18 -10 -23 -2 -7 11 -12 11 -34 3z m56 -140 c-2 -16 -4 -5 -4 22 0 28
2 40 4 28 2 -13 2 -35 0 -50z m7 -98 c3 -8 1 -15 -4 -15 -6 0 -10 7 -10 15 0
8 2 15 4 15 2 0 6 -7 10 -15z m63 -51 c-3 -3 -12 -4 -19 -1 -8 3 -5 6 6 6 11
1 17 -2 13 -5z"/>
<path d="M4818 3728 c-10 -10 -18 -15 -18 -12 0 3 -7 -2 -16 -11 -9 -9 -13
-19 -10 -23 4 -3 11 0 16 8 8 13 58 17 105 8 24 -5 64 -27 50 -28 -6 0 -17 6
-24 13 -12 10 -12 8 -6 -8 5 -11 11 -68 13 -127 l4 -108 26 1 27 1 -25 8 c-25
8 -24 8 5 9 17 1 25 5 20 9 -6 4 -10 51 -10 107 1 107 -7 145 -27 144 -10 0
-10 -2 0 -6 6 -2 12 -9 12 -15 0 -6 -9 -3 -20 7 -11 10 -20 24 -20 31 0 19
-81 13 -102 -8z m79 -10 c-3 -8 -6 -5 -6 6 -1 11 2 17 5 13 3 -3 4 -12 1 -19z"/>
<path d="M6100 3739 c0 -5 5 -9 12 -9 6 0 9 -3 6 -6 -4 -3 -16 0 -28 6 -15 8
-20 8 -16 1 4 -6 2 -11 -4 -11 -7 0 -20 -10 -31 -22 -10 -14 -18 -18 -19 -10
0 7 -4 11 -8 8 -5 -3 -8 5 -8 17 1 16 -5 22 -22 23 -22 1 -22 1 -21 -147 l1
-149 26 1 27 1 -25 8 c-25 8 -25 8 5 10 30 2 30 2 5 10 -24 8 -24 8 -3 9 22 1
22 4 19 79 -2 50 1 86 9 103 22 42 95 64 124 37 12 -11 13 -10 7 6 -7 19 -6
19 12 3 13 -12 18 -27 15 -45 -4 -22 -2 -24 7 -12 9 12 10 9 5 -15 -9 -36 -9
-32 -7 -122 2 -77 9 -86 42 -53 20 20 13 34 -14 24 -9 -3 -16 -1 -16 6 0 6 4
9 9 6 18 -12 30 22 29 84 -1 45 -4 57 -9 40 l-7 -25 -1 26 c-1 14 2 29 7 33
12 13 9 30 -10 57 -16 24 -66 50 -52 28 3 -5 -5 -9 -18 -9 -17 0 -19 3 -9 9 9
6 5 9 -13 9 -14 0 -26 -4 -26 -9z m115 -39 c3 -5 1 -10 -4 -10 -6 0 -11 5 -11
10 0 6 2 10 4 10 3 0 8 -4 11 -10z m-195 -34 c0 -3 -4 -8 -10 -11 -5 -3 -10
-1 -10 4 0 6 5 11 10 11 6 0 10 -2 10 -4z"/>
<path d="M3725 3723 c3 -8 8 -26 11 -39 3 -13 10 -22 14 -19 4 2 5 -7 2 -22
-4 -19 -2 -24 8 -18 8 5 11 4 7 -2 -4 -6 6 -49 21 -97 l27 -86 37 0 c33 0 39
4 45 28 4 15 6 35 4 45 -1 9 2 17 8 17 5 0 15 25 22 55 7 31 16 58 20 61 5 2
6 11 3 18 -7 19 16 32 27 15 8 -12 11 -12 20 1 8 12 9 12 6 -5 -2 -11 -9 -19
-16 -17 -7 1 -11 -1 -8 -5 2 -5 7 -17 11 -28 5 -13 9 -16 14 -8 4 7 8 -5 8
-25 0 -20 8 -63 18 -94 17 -58 18 -58 57 -58 27 0 39 4 39 14 0 8 3 23 6 33 6
16 5 16 -9 -2 -9 -11 -17 -15 -17 -8 0 6 10 19 21 27 14 9 19 21 15 31 -4 10
-2 14 6 9 8 -5 9 0 5 15 -3 13 -3 20 1 16 4 -4 19 31 33 77 25 80 28 109 9 78
-6 -10 -10 -11 -10 -3 0 7 -6 10 -14 7 -8 -3 -11 -15 -9 -32 3 -18 2 -23 -5
-14 -6 9 -18 -21 -37 -93 -15 -58 -31 -105 -36 -105 -9 0 -39 77 -65 165 -20
70 -40 97 -47 63 l-4 -23 -2 23 c-2 39 -41 17 -41 -24 0 -12 -3 -24 -8 -26 -8
-3 -58 -159 -55 -170 2 -4 -7 -6 -20 -4 -13 2 -23 11 -24 22 -3 18 -2 17 6 -1
6 -13 10 -15 10 -5 0 19 -17 59 -18 42 -1 -7 -6 -10 -11 -7 -6 4 -7 13 -1 23
6 11 1 43 -14 92 -20 68 -24 74 -49 76 -20 1 -25 -3 -21 -13z m22 -25 c-3 -8
-6 -5 -6 6 -1 11 2 17 5 13 3 -3 4 -12 1 -19z m20 0 c-3 -8 -6 -5 -6 6 -1 11
2 17 5 13 3 -3 4 -12 1 -19z m26 -119 c-4 -4 -9 11 -10 34 l-1 42 10 -34 c5
-18 6 -37 1 -42z m129 29 c-7 -7 -12 -8 -12 -2 0 6 3 14 7 17 3 4 9 5 12 2 2
-3 -1 -11 -7 -17z m238 2 c0 -5 -5 -10 -11 -10 -5 0 -7 5 -4 10 3 6 8 10 11
10 2 0 4 -4 4 -10z m-242 -45 c-3 -3 -9 2 -12 12 -6 14 -5 15 5 6 7 -7 10 -15
7 -18z m132 -19 c0 -8 3 -23 6 -33 3 -10 -2 -7 -10 7 -18 30 -20 40 -6 40 6 0
10 -6 10 -14z m-163 -53 c-3 -10 -5 -4 -5 12 0 17 2 24 5 18 2 -7 2 -21 0 -30z
m198 -35 c6 -4 2 -8 -7 -8 -10 0 -18 7 -18 17 0 9 3 12 8 7 4 -5 12 -12 17
-16z m-238 -4 c-3 -3 -12 -4 -19 -1 -8 3 -5 6 6 6 11 1 17 -2 13 -5z"/>
<path d="M4280 3598 c0 -131 1 -138 20 -138 22 0 24 5 20 70 -1 25 -2 54 -1
65 0 11 3 49 5 85 2 40 1 57 -4 45 -6 -15 -9 -16 -9 -4 -1 9 -8 16 -16 16 -13
0 -15 -22 -15 -139z m17 -41 c-2 -23 -3 -1 -3 48 0 50 1 68 3 42 2 -26 2 -67
0 -90z"/>
<path d="M4380 3730 c0 -5 5 -10 10 -10 6 0 10 5 10 10 0 6 -4 10 -10 10 -5 0
-10 -4 -10 -10z"/>
<path d="M5620 3664 c0 -41 -5 -84 -10 -95 -12 -21 3 -94 23 -113 16 -15 77
-36 77 -27 0 8 72 42 77 37 2 -2 -11 -11 -29 -19 -20 -10 -26 -17 -16 -17 10
0 32 13 50 30 18 16 27 30 21 30 -7 0 -13 -3 -13 -7 0 -5 -19 -9 -43 -11 -51
-3 -97 26 -97 61 0 18 -2 20 -11 7 -9 -12 -9 -11 -3 5 5 11 9 58 9 105 1 83 1
83 -2 10 -2 -41 -7 -78 -11 -82 -4 -4 -6 31 -4 77 2 56 0 85 -7 85 -7 0 -11
-28 -11 -76z m-3 -126 c-3 -8 -6 -5 -6 6 -1 11 2 17 5 13 3 -3 4 -12 1 -19z
m21 -53 c-3 -3 -9 2 -12 12 -6 14 -5 15 5 6 7 -7 10 -15 7 -18z m52 -17 c0 -5
-4 -6 -10 -3 -5 3 -10 1 -10 -5 0 -6 -5 -8 -12 -4 -9 6 -9 9 -1 11 7 3 9 12 6
21 -6 15 -5 15 10 3 9 -7 17 -18 17 -23z m15 -18 c-3 -5 -12 -10 -18 -10 -7 0
-6 4 3 10 19 12 23 12 15 0z"/>
<path d="M5830 3657 c0 -60 3 -77 13 -71 10 6 10 4 0 -7 -7 -7 -13 -23 -13
-35 0 -13 -5 -26 -10 -29 -15 -9 7 -35 29 -35 10 0 12 3 5 8 -8 5 -7 11 4 22
14 13 15 12 9 -3 -3 -9 -1 -20 6 -24 8 -5 1 -10 -18 -14 l-30 -7 32 -1 32 -1
-2 137 -2 136 -27 1 -28 2 0 -79z"/>
<path d="M6329 3721 c-1 -9 0 -33 1 -53 1 -26 -3 -38 -12 -38 -8 0 -9 -3 -3
-8 12 -8 14 -101 3 -118 -5 -7 -7 -23 -6 -36 2 -18 8 -25 29 -26 l28 -2 -4 77
c-2 43 -4 110 -4 149 -1 56 -4 71 -16 71 -8 0 -15 -7 -16 -16z m18 -73 c-3 -8
-6 -5 -6 6 -1 11 2 17 5 13 3 -3 4 -12 1 -19z m0 -125 c-3 -10 -5 -4 -5 12 0
17 2 24 5 18 2 -7 2 -21 0 -30z m13 -63 c0 -5 -5 -10 -11 -10 -5 0 -7 5 -4 10
3 6 8 10 11 10 2 0 4 -4 4 -10z"/>
<path d="M5602 3610 c0 -14 2 -19 5 -12 2 6 2 18 0 25 -3 6 -5 1 -5 -13z"/>
<path d="M6660 3495 c-8 -9 -14 -25 -15 -35 -1 -15 2 -17 16 -10 9 5 20 17 23
26 10 25 -8 38 -24 19z m20 -5 c0 -5 -5 -10 -11 -10 -5 0 -7 5 -4 10 3 6 8 10
11 10 2 0 4 -4 4 -10z"/>
<path d="M6230 3450 c0 -5 5 -10 11 -10 5 0 7 5 4 10 -3 6 -8 10 -11 10 -2 0
-4 -4 -4 -10z"/>
<path d="M4293 3443 c9 -2 23 -2 30 0 6 3 -1 5 -18 5 -16 0 -22 -2 -12 -5z"/>
<path d="M5858 3443 c6 -2 18 -2 25 0 6 3 1 5 -13 5 -14 0 -19 -2 -12 -5z"/>
</g>
</svg>
